<?xml version="1.0" encoding="iso-8859-1"?>
<!DOCTYPE svg PUBLIC "-//W3C//DTD SVG 1.1//EN" "http://www.w3.org/Graphics/SVG/1.1/DTD/svg11.dtd">
<svg fill="#fff" version="1.1" id="Capa_1" xmlns="http://www.w3.org/2000/svg" xmlns:xlink="http://www.w3.org/1999/xlink" x="0px" y="0px"
	 viewBox="0 0 408.333 408.333" style="enable-background:new 0 0 408.333 408.333;" xml:space="preserve">

	<path d="M364.14,0H44.193c-2.762,0-5,2.239-5,5v398.333c0,2.761,2.238,5,5,5H364.14c2.762,0,5-2.239,5-5V5
		C369.14,2.239,366.901,0,364.14,0z M359.14,10v56.284H49.193V10H359.14z M49.193,398.333V76.284H359.14v322.049H49.193z"/>
	<path d="M178.518,56.02c9.227,0,16.732-7.506,16.732-16.732s-7.506-16.732-16.732-16.732c-9.226,0-16.731,7.506-16.731,16.732
		S169.293,56.02,178.518,56.02z M178.518,32.556c3.712,0,6.732,3.02,6.732,6.732s-3.021,6.732-6.732,6.732s-6.731-3.02-6.731-6.732
		S174.807,32.556,178.518,32.556z"/>
	<path d="M229.814,56.02c9.227,0,16.732-7.506,16.732-16.732s-7.506-16.732-16.732-16.732c-9.226,0-16.731,7.506-16.731,16.732
		S220.589,56.02,229.814,56.02z M229.814,32.556c3.712,0,6.732,3.02,6.732,6.732s-3.021,6.732-6.732,6.732s-6.731-3.02-6.731-6.732
		S226.102,32.556,229.814,32.556z"/>
	<path d="M118.31,96.678H72.449c-2.762,0-5,2.239-5,5s2.238,5,5,5h45.861c2.762,0,5-2.239,5-5S121.072,96.678,118.31,96.678z"/>
	<path d="M118.31,113.387H72.449c-2.762,0-5,2.239-5,5s2.238,5,5,5h45.861c2.762,0,5-2.239,5-5S121.072,113.387,118.31,113.387z"/>
	<path d="M118.31,130.096H72.449c-2.762,0-5,2.239-5,5s2.238,5,5,5h45.861c2.762,0,5-2.239,5-5S121.072,130.096,118.31,130.096z"/>
	<path d="M118.31,146.805H72.449c-2.762,0-5,2.239-5,5s2.238,5,5,5h45.861c2.762,0,5-2.239,5-5S121.072,146.805,118.31,146.805z"/>
	<path d="M144.974,106.678h45.861c2.762,0,5-2.239,5-5s-2.238-5-5-5h-45.861c-2.762,0-5,2.239-5,5S142.212,106.678,144.974,106.678z
		"/>
	<path d="M144.974,123.387h45.861c2.762,0,5-2.239,5-5s-2.238-5-5-5h-45.861c-2.762,0-5,2.239-5,5S142.212,123.387,144.974,123.387z
		"/>
	<path d="M144.974,140.096h45.861c2.762,0,5-2.239,5-5s-2.238-5-5-5h-45.861c-2.762,0-5,2.239-5,5S142.212,140.096,144.974,140.096z
		"/>
	<path d="M144.974,156.805h45.861c2.762,0,5-2.239,5-5s-2.238-5-5-5h-45.861c-2.762,0-5,2.239-5,5S142.212,156.805,144.974,156.805z
		"/>
	<path d="M263.359,96.678h-45.861c-2.762,0-5,2.239-5,5s2.238,5,5,5h45.861c2.762,0,5-2.239,5-5S266.121,96.678,263.359,96.678z"/>
	<path d="M263.359,113.387h-45.861c-2.762,0-5,2.239-5,5s2.238,5,5,5h45.861c2.762,0,5-2.239,5-5S266.121,113.387,263.359,113.387z"
		/>
	<path d="M263.359,130.096h-45.861c-2.762,0-5,2.239-5,5s2.238,5,5,5h45.861c2.762,0,5-2.239,5-5S266.121,130.096,263.359,130.096z"
		/>
	<path d="M263.359,146.805h-45.861c-2.762,0-5,2.239-5,5s2.238,5,5,5h45.861c2.762,0,5-2.239,5-5S266.121,146.805,263.359,146.805z"
		/>
	<path d="M335.885,96.678h-45.861c-2.762,0-5,2.239-5,5s2.238,5,5,5h45.861c2.762,0,5-2.239,5-5S338.646,96.678,335.885,96.678z"/>
	<path d="M335.885,113.387h-45.861c-2.762,0-5,2.239-5,5s2.238,5,5,5h45.861c2.762,0,5-2.239,5-5S338.646,113.387,335.885,113.387z"
		/>
	<path d="M335.885,130.096h-45.861c-2.762,0-5,2.239-5,5s2.238,5,5,5h45.861c2.762,0,5-2.239,5-5S338.646,130.096,335.885,130.096z"
		/>
	<path d="M335.885,146.805h-45.861c-2.762,0-5,2.239-5,5s2.238,5,5,5h45.861c2.762,0,5-2.239,5-5S338.646,146.805,335.885,146.805z"
		/>
	<path d="M118.31,190H72.449c-2.762,0-5,2.239-5,5s2.238,5,5,5h45.861c2.762,0,5-2.239,5-5S121.072,190,118.31,190z"/>
	<path d="M118.31,206.709H72.449c-2.762,0-5,2.239-5,5s2.238,5,5,5h45.861c2.762,0,5-2.239,5-5S121.072,206.709,118.31,206.709z"/>
	<path d="M118.31,223.418H72.449c-2.762,0-5,2.239-5,5s2.238,5,5,5h45.861c2.762,0,5-2.239,5-5S121.072,223.418,118.31,223.418z"/>
	<path d="M118.31,240.127H72.449c-2.762,0-5,2.239-5,5s2.238,5,5,5h45.861c2.762,0,5-2.239,5-5S121.072,240.127,118.31,240.127z"/>
	<path d="M144.974,200h45.861c2.762,0,5-2.239,5-5s-2.238-5-5-5h-45.861c-2.762,0-5,2.239-5,5S142.212,200,144.974,200z"/>
	<path d="M144.974,216.709h45.861c2.762,0,5-2.239,5-5s-2.238-5-5-5h-45.861c-2.762,0-5,2.239-5,5S142.212,216.709,144.974,216.709z
		"/>
	<path d="M144.974,233.418h45.861c2.762,0,5-2.239,5-5s-2.238-5-5-5h-45.861c-2.762,0-5,2.239-5,5S142.212,233.418,144.974,233.418z
		"/>
	<path d="M144.974,250.127h45.861c2.762,0,5-2.239,5-5s-2.238-5-5-5h-45.861c-2.762,0-5,2.239-5,5S142.212,250.127,144.974,250.127z
		"/>
	<path d="M263.359,190h-45.861c-2.762,0-5,2.239-5,5s2.238,5,5,5h45.861c2.762,0,5-2.239,5-5S266.121,190,263.359,190z"/>
	<path d="M263.359,206.709h-45.861c-2.762,0-5,2.239-5,5s2.238,5,5,5h45.861c2.762,0,5-2.239,5-5S266.121,206.709,263.359,206.709z"
		/>
	<path d="M263.359,223.418h-45.861c-2.762,0-5,2.239-5,5s2.238,5,5,5h45.861c2.762,0,5-2.239,5-5S266.121,223.418,263.359,223.418z"
		/>
	<path d="M263.359,240.127h-45.861c-2.762,0-5,2.239-5,5s2.238,5,5,5h45.861c2.762,0,5-2.239,5-5S266.121,240.127,263.359,240.127z"
		/>
	<path d="M335.885,190h-45.861c-2.762,0-5,2.239-5,5s2.238,5,5,5h45.861c2.762,0,5-2.239,5-5S338.646,190,335.885,190z"/>
	<path d="M335.885,206.709h-45.861c-2.762,0-5,2.239-5,5s2.238,5,5,5h45.861c2.762,0,5-2.239,5-5S338.646,206.709,335.885,206.709z"
		/>
	<path d="M335.885,223.418h-45.861c-2.762,0-5,2.239-5,5s2.238,5,5,5h45.861c2.762,0,5-2.239,5-5S338.646,223.418,335.885,223.418z"
		/>
	<path d="M335.885,240.127h-45.861c-2.762,0-5,2.239-5,5s2.238,5,5,5h45.861c2.762,0,5-2.239,5-5S338.646,240.127,335.885,240.127z"
		/>
	<path d="M118.31,283.322H72.449c-2.762,0-5,2.239-5,5s2.238,5,5,5h45.861c2.762,0,5-2.239,5-5S121.072,283.322,118.31,283.322z"/>
	<path d="M118.31,300.031H72.449c-2.762,0-5,2.239-5,5s2.238,5,5,5h45.861c2.762,0,5-2.239,5-5S121.072,300.031,118.31,300.031z"/>
	<path d="M118.31,316.74H72.449c-2.762,0-5,2.239-5,5s2.238,5,5,5h45.861c2.762,0,5-2.239,5-5S121.072,316.74,118.31,316.74z"/>
	<path d="M118.31,333.45H72.449c-2.762,0-5,2.239-5,5s2.238,5,5,5h45.861c2.762,0,5-2.239,5-5S121.072,333.45,118.31,333.45z"/>
	<path d="M144.974,293.322h45.861c2.762,0,5-2.239,5-5s-2.238-5-5-5h-45.861c-2.762,0-5,2.239-5,5S142.212,293.322,144.974,293.322z
		"/>
	<path d="M144.974,310.031h45.861c2.762,0,5-2.239,5-5s-2.238-5-5-5h-45.861c-2.762,0-5,2.239-5,5S142.212,310.031,144.974,310.031z
		"/>
	<path d="M144.974,326.74h45.861c2.762,0,5-2.239,5-5s-2.238-5-5-5h-45.861c-2.762,0-5,2.239-5,5S142.212,326.74,144.974,326.74z"/>
	<path d="M190.835,343.45c2.762,0,5-2.239,5-5s-2.238-5-5-5h-45.861c-2.762,0-5,2.239-5,5s2.238,5,5,5H190.835z"/>
	<path d="M263.359,283.322h-45.861c-2.762,0-5,2.239-5,5s2.238,5,5,5h45.861c2.762,0,5-2.239,5-5S266.121,283.322,263.359,283.322z"
		/>
	<path d="M263.359,300.031h-45.861c-2.762,0-5,2.239-5,5s2.238,5,5,5h45.861c2.762,0,5-2.239,5-5S266.121,300.031,263.359,300.031z"
		/>
	<path d="M263.359,316.74h-45.861c-2.762,0-5,2.239-5,5s2.238,5,5,5h45.861c2.762,0,5-2.239,5-5S266.121,316.74,263.359,316.74z"/>
	<path d="M263.359,333.45h-45.861c-2.762,0-5,2.239-5,5s2.238,5,5,5h45.861c2.762,0,5-2.239,5-5S266.121,333.45,263.359,333.45z"/>
	<path d="M335.885,283.322h-45.861c-2.762,0-5,2.239-5,5s2.238,5,5,5h45.861c2.762,0,5-2.239,5-5S338.646,283.322,335.885,283.322z"
		/>
	<path d="M335.885,300.031h-45.861c-2.762,0-5,2.239-5,5s2.238,5,5,5h45.861c2.762,0,5-2.239,5-5S338.646,300.031,335.885,300.031z"
		/>
	<path d="M335.885,316.74h-45.861c-2.762,0-5,2.239-5,5s2.238,5,5,5h45.861c2.762,0,5-2.239,5-5S338.646,316.74,335.885,316.74z"/>
	<path d="M335.885,333.45h-45.861c-2.762,0-5,2.239-5,5s2.238,5,5,5h45.861c2.762,0,5-2.239,5-5S338.646,333.45,335.885,333.45z"/>
	<path d="M61.254,26.7h55.159c2.762,0,5-2.239,5-5s-2.238-5-5-5H61.254c-2.762,0-5,2.239-5,5S58.492,26.7,61.254,26.7z"/>
	<path d="M61.254,40.967h23.159c2.762,0,5-2.239,5-5s-2.238-5-5-5H61.254c-2.762,0-5,2.239-5,5S58.492,40.967,61.254,40.967z"/>
	<path d="M291.92,26.7h55.16c2.762,0,5-2.239,5-5s-2.238-5-5-5h-55.16c-2.762,0-5,2.239-5,5S289.158,26.7,291.92,26.7z"/>
	<path d="M347.08,30.967h-23.16c-2.762,0-5,2.239-5,5s2.238,5,5,5h23.16c2.762,0,5-2.239,5-5S349.842,30.967,347.08,30.967z"/>
	<path d="M260.072,382.033H148.262c-2.762,0-5,2.239-5,5s2.238,5,5,5h111.811c2.762,0,5-2.239,5-5S262.834,382.033,260.072,382.033z
		"/>
	<path d="M179.595,372.767c0,2.761,2.238,5,5,5h39.144c2.762,0,5-2.239,5-5s-2.238-5-5-5h-39.144
		C181.833,367.767,179.595,370.005,179.595,372.767z"/>

</svg>
